<?xml version="1.0" encoding="UTF-8" standalone="no"?>
<!DOCTYPE svg PUBLIC "-//W3C//DTD SVG 1.1//EN"
 "http://www.w3.org/Graphics/SVG/1.1/DTD/svg11.dtd">
<!-- Generated by graphviz version 2.38.0 (20140413.2041)
 -->
<!-- Title: snakemake_dag Pages: 1 -->
<svg width="121pt" height="188pt"
 viewBox="0.00 0.00 121.00 188.00" xmlns="http://www.w3.org/2000/svg" xmlns:xlink="http://www.w3.org/1999/xlink">
<g id="graph0" class="graph" transform="scale(1 1) rotate(0) translate(4 184)">
<title>snakemake_dag</title>
<polygon fill="white" stroke="none" points="-4,4 -4,-184 117,-184 117,4 -4,4"/>
<!-- 0 -->
<g id="node1" class="node"><title>0</title>
<path fill="none" stroke="#d85656" stroke-width="2" stroke-dasharray="5,2" d="M54.5,-36C54.5,-36 24.5,-36 24.5,-36 18.5,-36 12.5,-30 12.5,-24 12.5,-24 12.5,-12 12.5,-12 12.5,-6 18.5,-0 24.5,-0 24.5,-0 54.5,-0 54.5,-0 60.5,-0 66.5,-6 66.5,-12 66.5,-12 66.5,-24 66.5,-24 66.5,-30 60.5,-36 54.5,-36"/>
<text text-anchor="middle" x="39.5" y="-15.5" font-family="sans" font-size="10.00">all</text>
</g>
<!-- 1 -->
<g id="node2" class="node"><title>1</title>
<path fill="none" stroke="#afd856" stroke-width="2" stroke-dasharray="5,2" d="M67,-180C67,-180 12,-180 12,-180 6,-180 0,-174 0,-168 0,-168 0,-156 0,-156 0,-150 6,-144 12,-144 12,-144 67,-144 67,-144 73,-144 79,-150 79,-156 79,-156 79,-168 79,-168 79,-174 73,-180 67,-180"/>
<text text-anchor="middle" x="39.5" y="-159.5" font-family="sans" font-size="10.00">pheno_step1</text>
</g>
<!-- 1&#45;&gt;0 -->
<g id="edge1" class="edge"><title>1&#45;&gt;0</title>
<path fill="none" stroke="grey" stroke-width="2" d="M33.6765,-143.56C30.5686,-133.33 27.0686,-120.08 25.5,-108 23.4397,-92.1332 23.4397,-87.8668 25.5,-72 26.6029,-63.506 28.6607,-54.4338 30.8656,-46.2397"/>
<polygon fill="grey" stroke="grey" stroke-width="2" points="34.2837,-47.0172 33.6765,-36.4397 27.555,-45.0872 34.2837,-47.0172"/>
</g>
<!-- 2 -->
<g id="node3" class="node"><title>2</title>
<path fill="none" stroke="#56d8a9" stroke-width="2" stroke-dasharray="5,2" d="M101,-108C101,-108 46,-108 46,-108 40,-108 34,-102 34,-96 34,-96 34,-84 34,-84 34,-78 40,-72 46,-72 46,-72 101,-72 101,-72 107,-72 113,-78 113,-84 113,-84 113,-96 113,-96 113,-102 107,-108 101,-108"/>
<text text-anchor="middle" x="73.5" y="-87.5" font-family="sans" font-size="10.00">pheno_step2</text>
</g>
<!-- 1&#45;&gt;2 -->
<g id="edge3" class="edge"><title>1&#45;&gt;2</title>
<path fill="none" stroke="grey" stroke-width="2" d="M47.9045,-143.697C51.7748,-135.728 56.4517,-126.1 60.7431,-117.264"/>
<polygon fill="grey" stroke="grey" stroke-width="2" points="63.9714,-118.629 65.1922,-108.104 57.6748,-115.57 63.9714,-118.629"/>
</g>
<!-- 2&#45;&gt;0 -->
<g id="edge2" class="edge"><title>2&#45;&gt;0</title>
<path fill="none" stroke="grey" stroke-width="2" d="M65.0955,-71.6966C61.2252,-63.7284 56.5483,-54.0995 52.2569,-45.2641"/>
<polygon fill="grey" stroke="grey" stroke-width="2" points="55.3252,-43.5702 47.8078,-36.1043 49.0286,-46.6286 55.3252,-43.5702"/>
</g>
</g>
</svg>
